HIERARCHY
ROOT Hips
{
	OFFSET 0.000000 0.000000 0.000000
	CHANNELS 6 Xposition Yposition Zposition Zrotation Yrotation Xrotation 
	JOINT LHipJoint
	{
		OFFSET 0.000000 0.000000 0.000000
		CHANNELS 3 Zrotation Yrotation Xrotation
		JOINT LeftUpLeg
		{
			OFFSET 1.363060 -1.794630 0.839290
			CHANNELS 3 Zrotation Yrotation Xrotation
			JOINT LeftLeg
			{
				OFFSET 2.448110 -6.726130 0.000000
				CHANNELS 3 Zrotation Yrotation Xrotation
				JOINT LeftFoot
				{
					OFFSET 2.562200 -7.039590 0.000000
					CHANNELS 3 Zrotation Yrotation Xrotation
					JOINT LeftToeBase
					{
						OFFSET 0.157640 -0.433110 2.322550
						CHANNELS 3 Zrotation Yrotation Xrotation
						End Site
						{
							OFFSET 0.000000 0.000000 0.000000
						}
					}
				}
			}
		}
	}
	JOINT RHipJoint
	{
		OFFSET 0.000000 0.000000 0.000000
		CHANNELS 3 Zrotation Yrotation Xrotation
		JOINT RightUpLeg
		{
			OFFSET -1.305520 -1.794630 0.839290
			CHANNELS 3 Zrotation Yrotation Xrotation
			JOINT RightLeg
			{
				OFFSET -2.542530 -6.985550 0.000000
				CHANNELS 3 Zrotation Yrotation Xrotation
				JOINT RightFoot
				{
					OFFSET -2.568260 -7.056230 0.000000
					CHANNELS 3 Zrotation Yrotation Xrotation
					JOINT RightToeBase
					{
						OFFSET -0.164730 -0.452590 2.363150
						CHANNELS 3 Zrotation Yrotation Xrotation
						End Site
						{
							OFFSET 0.000000 0.000000 0.000000
						}
					}
				}
			}
		}
	}
	JOINT LowerBack
	{
		OFFSET 0.000000 0.000000 0.000000
		CHANNELS 3 Zrotation Yrotation Xrotation
		JOINT Spine
		{
			OFFSET 0.028270 2.035590 -0.193380
			CHANNELS 3 Zrotation Yrotation Xrotation
			JOINT Spine1
			{
				OFFSET 0.056720 2.048850 -0.042750
				CHANNELS 3 Zrotation Yrotation Xrotation
				JOINT Neck
				{
					OFFSET 0.000000 0.000000 0.000000
					CHANNELS 3 Zrotation Yrotation Xrotation
					JOINT Neck1
					{
						OFFSET -0.054170 1.746240 0.172020
						CHANNELS 3 Zrotation Yrotation Xrotation
						JOINT Head
						{
							OFFSET 0.104070 1.761360 -0.123970
							CHANNELS 3 Zrotation Yrotation Xrotation
							End Site
							{
								OFFSET 0.000000 0.000000 0.000000
							}
						}
					}
				}
				JOINT LeftShoulder
				{
					OFFSET 0.000000 0.000000 0.000000
					CHANNELS 3 Zrotation Yrotation Xrotation
					JOINT LeftArm
					{
						OFFSET 3.362410 1.200890 -0.311210
						CHANNELS 3 Zrotation Yrotation Xrotation
						JOINT LeftForeArm
						{
							OFFSET 4.983000 -0.000000 -0.000000
							CHANNELS 3 Zrotation Yrotation Xrotation
							JOINT LeftHand
							{
								OFFSET 3.483560 -0.000000 -0.000000
								CHANNELS 3 Zrotation Yrotation Xrotation
								JOINT LeftFingerBase
								{
									OFFSET 0.000000 0.000000 0.000000
									CHANNELS 3 Zrotation Yrotation Xrotation
									JOINT LeftHandIndex1
									{
										OFFSET 0.715260 -0.000000 -0.000000
										CHANNELS 3 Zrotation Yrotation Xrotation
										End Site
										{
											OFFSET 0.000000 0.000000 0.000000
										}
									}
								}
								JOINT LThumb
								{
									OFFSET 0.000000 0.000000 0.000000
									CHANNELS 3 Zrotation Yrotation Xrotation
									End Site
									{
										OFFSET 0.000000 0.000000 0.000000
									}
								}
							}
						}
					}
				}
				JOINT RightShoulder
				{
					OFFSET 0.000000 0.000000 0.000000
					CHANNELS 3 Zrotation Yrotation Xrotation
					JOINT RightArm
					{
						OFFSET -3.136600 1.374050 -0.404650
						CHANNELS 3 Zrotation Yrotation Xrotation
						JOINT RightForeArm
						{
							OFFSET -5.241900 -0.000000 -0.000000
							CHANNELS 3 Zrotation Yrotation Xrotation
							JOINT RightHand
							{
								OFFSET -3.444170 -0.000000 -0.000000
								CHANNELS 3 Zrotation Yrotation Xrotation
								JOINT RightFingerBase
								{
									OFFSET 0.000000 0.000000 0.000000
									CHANNELS 3 Zrotation Yrotation Xrotation
									JOINT RightHandIndex1
									{
										OFFSET -0.622530 -0.000000 -0.000000
										CHANNELS 3 Zrotation Yrotation Xrotation
										End Site
										{
											OFFSET 0.000000 0.000000 0.000000
										}
									}
								}
								JOINT RThumb
								{
									OFFSET 0.000000 0.000000 0.000000
									CHANNELS 3 Zrotation Yrotation Xrotation
									End Site
									{
										OFFSET 0.000000 0.000000 0.000000
									}
								}
							}
						}
					}
				}
			}
		}
	}
}
MOTION
Frames: 6
Frame Time: 0.008333
11.488374 17.274536 -14.125243 23.486350 -48.839233 -14.101160 -6.537166 1.140324 3.936119 -27.859500 12.321525 -17.307626 3.387016 11.079315 36.038083 2.662600 -17.458909 32.181745 3.836900 11.940200 35.520700 2.473342 -1.402239 1.158597 8.055878 21.758394 -29.590849 -4.131145 -10.017258 33.891032 1.653757 -11.491235 0.470760 -1.993200 -8.852000 25.333300 0.479786 -6.266224 6.750683 3.917357 -8.122103 5.065135 0.763947 -4.170892 -0.066012 10.133218 14.788331 -1.624832 -19.912396 20.168949 12.798022 -7.283300 8.831600 9.139800 -2.078772 -3.685517 0.765162 -72.622020 -11.305934 30.849568 34.737604 -39.628500 -15.752458 0.917351 -1.014112 11.184744 -5.098827 3.237703 -0.439400 -7.125000 0.000000 0.000000 -26.147400 33.041400 8.438800 0.688586 1.480716 0.157127 61.166375 -21.079845 -22.015285 -15.095437 23.120409 -3.062202 0.387066 -0.651780 2.263465 -16.954079 26.199221 -8.026500 7.125000 0.000000 0.000000 7.570700 -2.299200 7.325900 
11.448602 17.247206 -14.010434 21.517948 -49.146410 -12.654574 -6.336797 1.171319 3.812643 -26.327426 13.276961 -18.992153 4.017034 11.966131 38.840719 3.072205 -15.300005 35.112157 3.769100 11.846700 35.191700 2.409692 -1.409430 1.193229 9.527978 21.678135 -29.814849 -4.401384 -10.335569 35.193657 1.490002 -10.432376 -0.413420 -1.987600 -8.840300 25.296900 1.986232 -6.192000 6.949686 4.686886 -7.887556 5.192362 0.476404 -4.013450 -0.241968 10.256440 14.849869 -1.907428 -20.329561 20.297993 12.667213 -7.428100 8.868500 9.251900 -2.147956 -3.652482 0.722540 -74.015999 -10.726550 30.894561 34.801229 -39.644481 -15.835462 0.924301 -1.030913 11.572559 -4.929363 3.170625 -0.422100 -7.125000 0.000000 0.000000 -26.016500 32.997100 8.419100 0.698198 1.469493 0.175377 60.942547 -21.221610 -23.996677 -14.539436 22.361436 -2.838539 0.378109 -0.646640 3.105218 -16.984356 25.485158 -7.842200 7.125000 0.000000 0.000000 7.489500 -3.027700 7.145600 
11.398643 17.228985 -13.884263 19.369318 -49.497657 -11.093441 -6.137954 1.215941 3.694712 -24.635205 14.269945 -20.546944 4.678897 12.788129 41.458532 3.485347 -12.964402 37.658349 3.380600 11.287100 33.254300 2.345789 -1.423073 1.232124 11.130899 21.358513 -29.946896 -4.603911 -10.563179 36.123413 1.409854 -9.946410 -0.786087 -1.494700 -7.723000 21.875900 3.546408 -6.159617 6.805080 5.510818 -7.750866 5.536813 0.156481 -3.910636 0.000918 9.972694 14.854620 -2.193378 -20.653355 20.275887 12.092413 -7.486200 8.841400 9.124900 -2.212604 -3.640399 0.680158 -75.447561 -10.161810 30.600740 34.934857 -39.697164 -15.912433 0.725767 -1.092539 12.245490 0.263835 2.835378 -0.044200 -7.125000 0.000000 0.000000 -21.903300 33.073100 6.838500 0.706020 1.453576 0.195751 60.514176 -20.766290 -26.348070 -13.915983 21.500677 -2.599552 0.355146 -0.634565 3.984503 -16.506291 24.489707 -7.337800 7.125000 0.000000 0.000000 7.706400 -4.126700 7.198500 
11.355541 17.223891 -13.760736 18.035640 -49.466609 -10.349362 -5.944446 1.258027 3.590515 -23.395427 14.823910 -21.700343 5.358552 13.509751 43.911617 3.754456 -11.018454 39.182170 2.758700 10.293700 29.933200 2.290021 -1.436665 1.280655 11.973348 20.921254 -29.852677 -4.803131 -10.814301 37.061464 1.364371 -9.707961 -1.339599 -1.189400 -6.920800 19.481100 4.332117 -6.299282 6.991380 6.220816 -7.869755 5.749686 0.231000 -3.949453 0.037893 9.489045 14.930879 -1.971200 -20.679306 20.299619 11.397173 -7.419800 8.884500 8.805300 -2.288961 -3.610009 0.630709 -76.932077 -9.284883 29.933886 35.038625 -39.750473 -16.004250 0.721014 -1.115653 12.973481 0.679394 2.777504 -0.017600 -7.125000 0.000000 0.000000 -21.582800 33.050900 6.737300 0.717009 1.426294 0.216685 59.762523 -20.214256 -28.466869 -13.291842 20.632262 -2.371340 0.324435 -0.625513 5.152711 -15.862010 23.599279 -6.801500 7.125000 0.000000 0.000000 8.048300 -5.136700 7.370100 
11.317337 17.218993 -13.650140 18.688160 -48.903089 -11.054637 -5.800221 1.259310 3.488471 -23.569390 14.845779 -22.693324 6.054378 14.087687 46.127545 3.916588 -8.741729 40.055488 2.029000 8.926300 25.565000 2.248140 -1.434571 1.350092 11.204879 20.049473 -30.076404 -4.982477 -11.097129 37.983527 1.240868 -8.997448 -1.929218 -1.067500 -6.568300 18.442600 3.697131 -6.453392 7.317781 6.377805 -8.090796 5.836792 0.681254 -4.074744 0.005501 9.705511 15.125433 -1.887176 -20.642318 20.522476 11.086357 -7.396000 9.034600 8.745900 -2.358843 -3.578862 0.593343 -77.954889 -8.541663 29.236415 34.933679 -39.663153 -15.945645 0.810481 -1.111694 13.328267 -1.265726 2.757107 -0.147200 -7.125000 0.000000 0.000000 -23.124400 32.897500 7.385400 0.743529 1.404253 0.239404 59.248593 -19.552578 -30.911422 -12.524194 19.544726 -2.102927 0.300992 -0.643552 7.394809 -16.037335 23.303163 -6.802300 7.125000 0.000000 0.000000 7.919400 -5.405300 7.208900 
11.277957 17.177655 -13.541503 19.905028 -48.102694 -11.970735 -5.669890 1.224204 3.371929 -24.210004 14.473176 -23.769207 6.751669 14.597715 48.317764 4.007765 -7.126775 40.624164 0.986400 6.321700 17.720700 2.195978 -1.416086 1.424957 9.965448 18.692842 -30.833160 -5.166248 -11.409753 38.951685 1.044040 -7.805828 -2.392431 -1.018700 -6.421100 18.011200 2.830163 -6.387471 7.421894 6.220739 -8.064665 5.854446 1.045513 -4.085555 0.054283 10.319801 15.105538 -2.230893 -20.563622 20.489159 11.162920 -7.429400 9.039700 8.877000 -2.368365 -3.539793 0.579340 -77.656493 -7.969449 30.691311 34.768867 -39.506533 -15.782690 0.536110 -1.148504 12.098496 5.307768 2.536517 0.282500 -7.125000 0.000000 0.000000 -17.812400 33.136200 5.405100 0.771613 1.385764 0.262058 59.334264 -18.956765 -35.187697 -11.706546 18.422175 -1.843341 0.257757 -0.683148 11.010966 -16.265374 23.441335 -6.945500 7.125000 0.000000 0.000000 7.788100 -5.209800 7.116300 
